# xmcd
#
# Track frame offsets:
#	150
#	45593
#	63910
#	93720
#	119849
#	181948
#	227491
#	245038
#	269088
#	298006
#
# Disc length: 4823 seconds
#
# Revision: 0
# Processed by: cddbd v1.5.2PL0 Copyright (c) Steve Scherf et al.
# Submitted via: SynApp - FreeCDDB Version: 2.0
#
DISCID=9912d50a
DTITLE=Butterfield Blues Band - Live 1970-Live in Woodstock 1969
DYEAR=1970
DGENRE="Blues, allgemein"
TTITLE0=Everything going to be alright
TTITLE1=Love Disaese
TTITLE2=The Boxer
TTITLE3=No Amount of loving
TTITLE4=Driftin' and Driftin'
TTITLE5=Number Nine
TTITLE6=I want to be with you
TTITLE7=Born under a bad sign
TTITLE8=Get together again
TTITLE9=So Far, so good
EXTD=
EXTT0=
EXTT1=
EXTT2=
EXTT3=
EXTT4=
EXTT5=
EXTT6=
EXTT7=
EXTT8=
EXTT9=
PLAYORDER=
